<?xml version="1.0" encoding="utf-8"?>
<!-- Generator: Adobe Illustrator 15.0.0, SVG Export Plug-In . SVG Version: 6.00 Build 0)  -->
<!DOCTYPE svg PUBLIC "-//W3C//DTD SVG 1.1//EN" "http://www.w3.org/Graphics/SVG/1.1/DTD/svg11.dtd">
<svg version="1.1" id="Layer_1" xmlns="http://www.w3.org/2000/svg" xmlns:xlink="http://www.w3.org/1999/xlink" x="0px" y="0px"
	 width="613.793px" height="99.138px" viewBox="0 0 613.793 99.138" enable-background="new 0 0 613.793 99.138"
	 xml:space="preserve">
<g>
	<path fill="#A84322" d="M24.135,13.03l8.474-4.353l12.09,4.353v30.104L70.245,13.03l8.474-4.353l15.907,4.353l-28.09,31.907
		l37.515,37.943l-8.471,4.349h-24.7L52.223,59.67l-7.524,8.376l8.468,14.834l-8.468,4.349H24.135V13.03z"/>
	<path fill="#A84322" d="M153.675,12.498l8.47-4.349l11.353,4.349l40.06,70.382l-8.474,4.349H183.04l-5.408-13.251h-28.627
		l3.175,8.902l-8.473,4.349h-21.629L153.675,12.498z M171.696,58.081l-8.269-21.092l-8.375,21.092H171.696z"/>
	<path fill="#A84322" d="M238.795,13.03l8.47-4.353l26.616,4.353c5.724,0,10.565,0.706,14.52,2.118
		c3.961,1.416,7.173,3.394,9.648,5.939c4.38,4.24,6.574,10.001,6.574,17.275v0.213c0,5.726-1.377,10.463-4.138,14.206
		c-2.752,3.748-6.465,6.606-11.127,8.585l26.175,21.515l-8.474,4.349h-23.746l-14.945-22.473h-0.211h-8.798l8.473,18.124
		l-8.473,4.349h-20.564V13.03z M272.927,48.646c3.534,0,6.253-0.795,8.164-2.386c1.907-1.59,2.863-3.724,2.863-6.413v-0.209
		c0-2.971-0.993-5.179-2.972-6.625c-1.979-1.451-4.7-2.177-8.16-2.177h-13.463v17.81H272.927z"/>
	<path fill="#A84322" d="M341.512,13.03l8.472-4.353l13.256,4.353l17.701,28.726l17.705-28.726l8.473-4.353l13.26,4.353
		l8.469,69.851l-8.469,4.349h-20.459v-42.61l-10.451,24.692l-8.473,4.353h-0.423l-18.818-28.835l8.472,38.052l-8.472,4.349h-20.242
		V13.03z"/>
	<path fill="#A84322" d="M460.444,13.03l8.473-4.353h20.669V82.88l-8.469,4.349h-20.673V13.03z"/>
	<path fill="#A84322" d="M521.183,13.03l8.476-4.353l12.092,4.353v30.104l25.546-30.104l8.473-4.353l15.908,4.353l-28.09,31.907
		l37.514,37.943l-8.469,4.349h-24.7L549.273,59.67l-7.522,8.376l8.469,14.834l-8.469,4.349h-20.567V13.03z"/>
</g>
<g>
	<path fill="#FFFFFF" d="M32.609,8.677h20.559v30.107L78.719,8.677h24.379L75.01,40.584l29.041,42.296H79.355L60.697,55.318
		l-7.53,8.376V82.88H32.609V8.677z"/>
	<path fill="#FFFFFF" d="M162.146,8.149h19.825l31.587,74.731H191.51l-5.406-13.251h-28.622L152.18,82.88h-21.627L162.146,8.149z
		 M180.167,53.728l-8.271-21.092l-8.371,21.092H180.167z"/>
	<path fill="#FFFFFF" d="M247.266,8.677h35.086c5.724,0,10.565,0.706,14.524,2.122c3.957,1.412,7.171,3.395,9.646,5.936
		c4.377,4.24,6.573,10.001,6.573,17.278v0.213c0,5.726-1.379,10.459-4.135,14.202c-2.758,3.748-6.465,6.61-11.132,8.585
		l17.705,25.867h-23.745l-14.949-22.473h-0.211h-8.796V82.88h-20.566V8.677z M281.398,44.293c3.534,0,6.253-0.792,8.164-2.382
		c1.907-1.59,2.861-3.728,2.861-6.417v-0.209c0-2.967-0.987-5.175-2.97-6.625c-1.978-1.447-4.698-2.173-8.158-2.173h-13.463v17.806
		H281.398z"/>
	<path fill="#FFFFFF" d="M349.984,8.677h21.725l17.705,28.726l17.705-28.726h21.729V82.88h-20.456V40.266l-18.923,29.045h-0.427
		l-18.815-28.835V82.88h-20.242V8.677z"/>
	<path fill="#FFFFFF" d="M468.917,8.677h20.669V82.88h-20.669V8.677z"/>
	<path fill="#FFFFFF" d="M529.659,8.677h20.561v30.107l25.55-30.107h24.377l-28.09,31.907l29.045,42.296h-24.696l-18.659-27.562
		l-7.526,8.376V82.88h-20.561V8.677z"/>
</g>
</svg>
